<svg width="28" height="28" viewBox="0 0 28 28" fill="none" xmlns="http://www.w3.org/2000/svg">
<g clip-path="url(#clip0_208_584)">
<path d="M21.8382 22.2494C22.2248 22.2494 22.5382 21.936 22.5382 21.5494L22.5382 6.44772C22.5382 6.31827 22.5127 6.19007 22.4632 6.07046C22.4137 5.95086 22.3411 5.84218 22.2495 5.75064C22.158 5.6591 22.0493 5.5865 21.9297 5.53698C21.8101 5.48746 21.6819 5.46199 21.5525 5.46203L6.4508 5.46203C6.06418 5.46203 5.75076 5.77547 5.7508 6.16209L5.75085 6.73364C5.75088 7.12022 6.06428 7.43358 6.45085 7.43358L19.1724 7.43358L5.54824 21.0577C5.27487 21.3311 5.27487 21.7743 5.54824 22.0477L5.95253 22.4519C6.2259 22.7253 6.66911 22.7253 6.94248 22.4519L20.5666 8.82782L20.5668 21.5495C20.5668 21.9361 20.8802 22.2494 21.2668 22.2494L21.8382 22.2494Z" fill="#F8F8FA"/>
</g>
<defs>
<clipPath id="clip0_208_584">
<rect width="28" height="28" fill="white"/>
</clipPath>
</defs>
</svg>
