<svg width="25" height="24" viewBox="0 0 25 24" fill="none" xmlns="http://www.w3.org/2000/svg">
<path d="M12.2509 21.7508C12.4852 21.9852 12.8651 21.9852 13.0995 21.7508L22.2525 12.5978C22.331 12.5194 22.3932 12.4262 22.4357 12.3237C22.4782 12.2212 22.5001 12.1114 22.5001 12.0004C22.5001 11.8894 22.4782 11.7796 22.4357 11.6771C22.3932 11.5745 22.331 11.4814 22.2525 11.403L13.0995 2.24999C12.8652 2.01566 12.4852 2.01567 12.2509 2.25002L11.9046 2.59647C11.6703 2.83079 11.6703 3.21066 11.9046 3.44496L19.615 11.1554L3.10006 11.1554C2.76869 11.1554 2.50006 11.424 2.50006 11.7554V12.2454C2.50006 12.5768 2.76869 12.8454 3.10006 12.8454L19.615 12.8454L11.9046 20.556C11.6703 20.7903 11.6703 21.1702 11.9046 21.4045L12.2509 21.7508Z" fill="#F8F8FA"/>
</svg>
