<svg width="20" height="20" viewBox="0 0 20 20" fill="none" xmlns="http://www.w3.org/2000/svg">
<g clip-path="url(#clip0_208_219)">
<path fill-rule="evenodd" clip-rule="evenodd" d="M20 10C20 4.47715 15.5228 -6.78525e-07 10 -4.37114e-07C4.47715 -1.95703e-07 -6.7634e-07 4.47715 -4.37114e-07 10C-1.93517e-07 15.5228 4.47715 20 10 20C15.5228 20 20 15.5228 20 10ZM11.4797 8.52025C12.3017 9.34221 13.5498 9.51695 16.0461 9.86642L17 9.99997L16.0461 10.1335C13.5498 10.483 12.3017 10.6577 11.4797 11.4797C10.6578 12.3017 10.483 13.5498 10.1335 16.0461L10 17L9.86645 16.0461C9.51697 13.5498 9.34223 12.3017 8.52027 11.4797C7.69831 10.6577 6.45016 10.483 3.95387 10.1335L3 9.99997L3.95388 9.86643C6.45017 9.51695 7.69832 9.34221 8.52028 8.52025C9.34224 7.69829 9.51698 6.45014 9.86646 3.95386L10 3L10.1335 3.95385C10.483 6.45014 10.6578 7.69828 11.4797 8.52025Z" fill="#6D3CF1"/>
</g>
<defs>
<clipPath id="clip0_208_219">
<rect width="20" height="20" fill="white"/>
</clipPath>
</defs>
</svg>
