<svg width="20" height="20" viewBox="0 0 20 20" fill="none" xmlns="http://www.w3.org/2000/svg">
<path d="M10.5 19.9853C15.7906 19.7248 20 15.3533 20 9.99877C20 8.35567 19.6036 6.80513 18.9013 5.43755C16.0849 7.06335 14.6768 7.87626 13.6118 8.97183C12.3401 10.2802 11.4138 11.8844 10.9165 13.6398C10.5 15.1097 10.5 16.7349 10.5 19.9853Z" fill="#6D3CF1"/>
<path d="M9.50001 19.9853C4.20945 19.7248 0 15.3533 0 9.99877C0 8.35566 0.396382 6.80513 1.09875 5.43754C3.91509 7.06335 5.32326 7.87626 6.38819 8.97183C7.65996 10.2802 8.58624 11.8844 9.08357 13.6398C9.50001 15.1097 9.50001 16.7349 9.50001 19.9853Z" fill="#6D3CF1"/>
<path d="M1.59955 4.57208C4.41561 6.19773 5.82364 7.01056 7.30547 7.38491C9.07404 7.83169 10.926 7.83169 12.6946 7.38491C14.1764 7.01056 15.5844 6.19774 18.4005 4.57209C16.6189 1.82067 13.5221 0 10 0C6.47788 0 3.38106 1.82066 1.59955 4.57208Z" fill="#6D3CF1"/>
</svg>
