<svg width="83" height="130" viewBox="0 0 83 130" fill="none" xmlns="http://www.w3.org/2000/svg">
<path d="M18.3381 117.364C18.6627 117.433 19.0033 117.427 19.3232 117.273C23.1596 115.557 27.1865 113.62 30.5267 110.493C31.7018 109.385 33.3403 107.632 33.9317 105.095C34.6445 102.049 33.506 98.8709 31.1029 97.1594C28.6874 95.4452 25.3848 95.448 22.6825 97.1706L22.5614 97.2493C22.4827 97.1282 22.4041 97.007 22.3227 96.8984C20.3084 94.0949 16.9201 92.9049 13.9206 93.9379C10.808 95.0121 8.73215 98.1468 8.83857 101.576C8.94252 104.587 10.2289 107.131 11.4779 109.237C13.191 112.107 15.3636 114.657 17.2636 116.77C17.4958 117.028 17.8984 117.284 18.3479 117.379L18.3381 117.364Z" fill="#242834"/>
<g opacity="0.5">
<path d="M46.9194 93.4216C47.244 93.4906 47.5846 93.4847 47.9045 93.3308C51.7409 91.6143 55.7678 89.6773 59.108 86.5503C60.2831 85.4427 61.9216 83.6898 62.513 81.153C63.2258 78.107 62.0873 74.9285 59.6842 73.217C57.2687 71.5028 53.9661 71.5056 51.2638 73.2282L51.1427 73.3069C51.064 73.1858 50.9854 73.0647 50.904 72.956C48.8897 70.1525 45.5014 68.9625 42.5019 69.9955C39.3893 71.0697 37.3134 74.2045 37.4199 77.6334C37.5238 80.6442 38.8102 83.1886 40.0592 85.2943C41.7723 88.1642 43.9449 90.7142 45.8449 92.8278C46.0771 93.0859 46.4797 93.3412 46.9292 93.4367L46.9194 93.4216Z" fill="#6D3CF1"/>
</g>
<g opacity="0.5">
<path d="M55.5214 65.2326C55.8461 65.3016 56.1867 65.2957 56.5065 65.1418C60.343 63.4254 64.3699 61.4884 67.71 58.3613C68.8851 57.2537 70.5237 55.5008 71.1151 52.9641C71.8278 49.918 70.6893 46.7395 68.2863 45.028C65.8707 43.3139 62.5682 43.3167 59.8659 45.0393L59.7447 45.1179C59.6661 44.9968 59.5874 44.8757 59.5061 44.767C57.4918 41.9636 54.1034 40.7735 51.104 41.8065C47.9913 42.8807 45.9155 46.0155 46.0219 49.4445C46.1259 52.4553 47.4122 54.9996 48.6613 57.1053C50.3744 59.9753 52.547 62.5252 54.447 64.6388C54.6792 64.897 55.0817 65.1522 55.5313 65.2478L55.5214 65.2326Z" fill="#6D3CF1"/>
</g>
<g opacity="0.4">
<path d="M34.4201 29.424C34.7447 29.493 35.0853 29.4871 35.4051 29.3332C39.2416 27.6168 43.2685 25.6798 46.6087 22.5527C47.7838 21.4452 49.4223 19.6922 50.0137 17.1555C50.7264 14.1094 49.5879 10.9309 47.1849 9.21944C44.7693 7.50529 41.4668 7.50808 38.7645 9.23069L38.6434 9.30935C38.5647 9.18822 38.486 9.06709 38.4047 8.95845C36.3904 6.15498 33.0021 4.96493 30.0026 5.99792C26.89 7.07211 24.8141 10.2069 24.9205 13.6359C25.0245 16.6467 26.3108 19.191 27.5599 21.2967C29.273 24.1667 31.4456 26.7167 33.3456 28.8302C33.5778 29.0884 33.9804 29.3436 34.4299 29.4392L34.4201 29.424Z" fill="#6D3CF1"/>
</g>
</svg>
