<svg width="28" height="28" viewBox="0 0 28 28" fill="none" xmlns="http://www.w3.org/2000/svg">
<path d="M15.1397 4.9652C15.1397 4.33589 14.6295 3.82574 14.0002 3.82574C13.3709 3.82574 12.8608 4.33589 12.8608 4.96519L12.8608 12.8605L4.96543 12.8605C4.33612 12.8605 3.82598 13.3707 3.82598 14C3.82598 14.6293 4.33613 15.1395 4.96543 15.1395L12.8608 15.1395L12.8608 23.0348C12.8608 23.6641 13.3709 24.1743 14.0002 24.1743C14.6295 24.1743 15.1397 23.6641 15.1397 23.0348L15.1397 15.1395L23.035 15.1395C23.6643 15.1395 24.1745 14.6293 24.1745 14C24.1745 13.3707 23.6643 12.8605 23.035 12.8605L15.1397 12.8605L15.1397 4.9652Z" fill="#F8F8FA"/>
</svg>
