<svg width="237" height="90" viewBox="0 0 237 90" fill="none" xmlns="http://www.w3.org/2000/svg">
<rect y="18" width="237" height="50" rx="14" fill="#F8F8FA"/>
<path d="M30.392 34.4V36.176H24.44L23.84 40.184C24.2 40.136 24.536 40.112 25.112 40.112C26.336 40.112 27.512 40.352 28.472 40.952C29.696 41.624 30.704 42.992 30.704 44.936C30.704 47.984 28.28 50.264 24.896 50.264C23.192 50.264 21.776 49.784 21.008 49.304L21.536 47.696C22.184 48.08 23.456 48.56 24.896 48.56C26.864 48.56 28.592 47.264 28.568 45.176C28.568 43.16 27.2 41.744 24.104 41.744C23.192 41.744 22.496 41.816 21.92 41.888L22.928 34.4H30.392ZM34.9447 50.264C34.1287 50.264 33.5527 49.616 33.5527 48.752C33.5527 47.888 34.1527 47.24 34.9927 47.24C35.8327 47.24 36.4087 47.864 36.4087 48.752C36.4087 49.616 35.8327 50.264 34.9447 50.264ZM43.5854 34.136C46.8494 34.136 48.7454 37.064 48.7454 42.032C48.7454 47.336 46.7534 50.264 43.3214 50.264C40.2734 50.264 38.1854 47.408 38.1374 42.248C38.1374 36.992 40.4174 34.136 43.5854 34.136ZM43.4414 35.768C41.6174 35.768 40.2734 38.024 40.2734 42.272C40.2734 46.328 41.5214 48.632 43.4414 48.632C45.5774 48.632 46.6094 46.112 46.6094 42.128C46.6094 38.288 45.6494 35.768 43.4414 35.768Z" fill="#6D3CF1"/>
<path d="M88.6667 49H87.0067V45.44H80.9667V44.3L86.7667 36H88.6667V44.08H90.4867V45.44H88.6667V49ZM82.7467 44.08H87.0067V39.74C87.0067 39.06 87.0267 38.38 87.0667 37.7H87.0067C86.6067 38.46 86.2867 39.02 85.9267 39.62L82.7467 44.04V44.08ZM93.1206 49.22C92.4406 49.22 91.9606 48.68 91.9606 47.96C91.9606 47.24 92.4606 46.7 93.1606 46.7C93.8606 46.7 94.3406 47.22 94.3406 47.96C94.3406 48.68 93.8606 49.22 93.1206 49.22ZM96.9812 49.2V47.76C97.3612 47.8 97.8012 47.76 98.4012 47.7C99.4212 47.56 100.381 47.16 101.121 46.44C101.981 45.66 102.601 44.52 102.841 43H102.781C102.061 43.88 101.021 44.38 99.7012 44.38C97.3812 44.38 95.8812 42.62 95.8812 40.4C95.8812 37.94 97.6612 35.78 100.321 35.78C102.981 35.78 104.621 37.92 104.621 41.28C104.621 44.12 103.661 46.12 102.381 47.36C101.381 48.34 100.001 48.94 98.6012 49.1C97.9612 49.2 97.4012 49.22 96.9812 49.2ZM100.161 37.12C98.6812 37.12 97.6212 38.44 97.6212 40.3C97.6212 41.92 98.6012 43.06 100.121 43.06C101.301 43.06 102.221 42.48 102.681 41.7C102.781 41.52 102.841 41.34 102.841 41.04C102.841 38.82 102.021 37.12 100.161 37.12Z" fill="#242834"/>
<path d="M144.333 49H142.673V45.44H136.633V44.3L142.433 36H144.333V44.08H146.153V45.44H144.333V49ZM138.413 44.08H142.673V39.74C142.673 39.06 142.693 38.38 142.733 37.7H142.673C142.273 38.46 141.953 39.02 141.593 39.62L138.413 44.04V44.08ZM148.787 49.22C148.107 49.22 147.627 48.68 147.627 47.96C147.627 47.24 148.127 46.7 148.827 46.7C149.527 46.7 150.007 47.22 150.007 47.96C150.007 48.68 149.527 49.22 148.787 49.22ZM154.048 42.22L154.028 42.16C152.568 41.48 151.948 40.36 151.948 39.24C151.948 37.18 153.688 35.78 155.988 35.78C158.508 35.78 159.788 37.34 159.788 38.98C159.788 40.08 159.228 41.28 157.628 42.02V42.08C159.248 42.72 160.248 43.88 160.248 45.44C160.248 47.72 158.308 49.22 155.828 49.22C153.108 49.22 151.468 47.62 151.468 45.72C151.468 44.08 152.448 42.9 154.048 42.22ZM155.868 47.94C157.448 47.94 158.468 46.96 158.468 45.62C158.468 44.06 157.368 43.28 155.608 42.78C154.088 43.22 153.268 44.24 153.268 45.48C153.208 46.78 154.208 47.94 155.868 47.94ZM155.888 37.04C154.428 37.04 153.628 38 153.628 39.12C153.608 40.42 154.608 41.12 156.108 41.52C157.228 41.14 158.088 40.34 158.088 39.16C158.088 38.12 157.468 37.04 155.888 37.04Z" fill="#242834"/>
<path d="M200 49H198.34V45.44H192.3V44.3L198.1 36H200V44.08H201.82V45.44H200V49ZM194.08 44.08H198.34V39.74C198.34 39.06 198.36 38.38 198.4 37.7H198.34C197.94 38.46 197.62 39.02 197.26 39.62L194.08 44.04V44.08ZM204.454 49.22C203.774 49.22 203.294 48.68 203.294 47.96C203.294 47.24 203.794 46.7 204.494 46.7C205.194 46.7 205.674 47.22 205.674 47.96C205.674 48.68 205.194 49.22 204.454 49.22ZM207.535 36H215.735V37.16L210.075 49H208.255L213.895 37.5V37.46H207.535V36Z" fill="#242834"/>
<rect x="8" width="60" height="60" rx="12" fill="#6D3CF1"/>
<path d="M32.382 22.1V24.752H25.882L25.388 28.132C25.752 28.08 26.09 28.054 26.584 28.054C28.066 28.054 29.574 28.392 30.692 29.146C31.966 29.952 32.902 31.382 32.902 33.436C32.902 36.66 30.224 39.286 26.09 39.286C24.114 39.286 22.476 38.792 21.592 38.298L22.242 35.88C22.97 36.27 24.426 36.764 25.96 36.764C27.832 36.764 29.626 35.698 29.626 33.696C29.626 31.746 28.196 30.472 24.842 30.472C23.88 30.472 23.178 30.55 22.528 30.628L23.62 22.1H32.382ZM37.7155 39.286C36.5715 39.286 35.7655 38.402 35.7655 37.232C35.7655 36.036 36.5975 35.178 37.7415 35.178C38.9115 35.178 39.7175 36.01 39.7175 37.232C39.7175 38.402 38.9375 39.286 37.7155 39.286ZM47.656 21.814C51.738 21.814 53.636 25.454 53.636 30.42C53.636 35.88 51.504 39.286 47.448 39.286C43.574 39.286 41.494 35.75 41.468 30.602C41.468 25.324 43.704 21.814 47.656 21.814ZM47.578 24.258C45.888 24.258 44.692 26.364 44.692 30.576C44.692 34.71 45.81 36.842 47.552 36.842C49.45 36.842 50.412 34.554 50.412 30.498C50.412 26.572 49.502 24.258 47.578 24.258Z" fill="#F8F8FA"/>
<path d="M179.974 82.8196C179.908 82.6171 179.729 82.4733 179.516 82.4542L176.63 82.1921L175.489 79.5207C175.405 79.325 175.213 79.1982 175 79.1982C174.787 79.1982 174.595 79.325 174.511 79.5212L173.37 82.1921L170.483 82.4542C170.271 82.4738 170.092 82.6171 170.026 82.8196C169.96 83.0221 170.021 83.2442 170.182 83.3842L172.363 85.2976L171.72 88.1314C171.673 88.3398 171.754 88.5552 171.927 88.6801C172.02 88.7473 172.128 88.7814 172.238 88.7814C172.332 88.7814 172.426 88.756 172.51 88.7056L175 87.2176L177.489 88.7056C177.671 88.8152 177.9 88.8052 178.073 88.6801C178.246 88.5548 178.327 88.3393 178.28 88.1314L177.636 85.2976L179.818 83.3846C179.978 83.2442 180.04 83.0225 179.974 82.8196Z" fill="#242834"/>
<path d="M193.974 82.8196C193.908 82.6171 193.729 82.4733 193.516 82.4542L190.63 82.1921L189.489 79.5207C189.405 79.325 189.213 79.1982 189 79.1982C188.787 79.1982 188.595 79.325 188.511 79.5212L187.37 82.1921L184.483 82.4542C184.271 82.4738 184.092 82.6171 184.026 82.8196C183.96 83.0221 184.021 83.2442 184.182 83.3842L186.363 85.2976L185.72 88.1314C185.673 88.3398 185.754 88.5552 185.927 88.6801C186.02 88.7473 186.128 88.7814 186.238 88.7814C186.332 88.7814 186.426 88.756 186.51 88.7056L189 87.2176L191.489 88.7056C191.671 88.8152 191.9 88.8052 192.073 88.6801C192.246 88.5548 192.327 88.3393 192.28 88.1314L191.636 85.2976L193.818 83.3846C193.978 83.2442 194.04 83.0225 193.974 82.8196Z" fill="#242834"/>
<path d="M207.974 82.8196C207.908 82.6171 207.729 82.4733 207.516 82.4542L204.63 82.1921L203.489 79.5207C203.405 79.325 203.213 79.1982 203 79.1982C202.787 79.1982 202.595 79.325 202.511 79.5212L201.37 82.1921L198.483 82.4542C198.271 82.4738 198.092 82.6171 198.026 82.8196C197.96 83.0221 198.021 83.2442 198.182 83.3842L200.363 85.2976L199.72 88.1314C199.673 88.3398 199.754 88.5552 199.927 88.6801C200.02 88.7473 200.128 88.7814 200.238 88.7814C200.332 88.7814 200.426 88.756 200.51 88.7056L203 87.2176L205.489 88.7056C205.671 88.8152 205.9 88.8052 206.073 88.6801C206.246 88.5548 206.327 88.3393 206.28 88.1314L205.636 85.2976L207.818 83.3846C207.978 83.2442 208.04 83.0225 207.974 82.8196Z" fill="#242834"/>
<path d="M221.974 82.8196C221.908 82.6171 221.729 82.4733 221.516 82.4542L218.63 82.1921L217.489 79.5207C217.405 79.325 217.213 79.1982 217 79.1982C216.787 79.1982 216.595 79.325 216.511 79.5212L215.37 82.1921L212.483 82.4542C212.271 82.4738 212.092 82.6171 212.026 82.8196C211.96 83.0221 212.021 83.2442 212.182 83.3842L214.363 85.2976L213.72 88.1314C213.673 88.3398 213.754 88.5552 213.927 88.6801C214.02 88.7473 214.128 88.7814 214.238 88.7814C214.332 88.7814 214.426 88.756 214.51 88.7056L217 87.2176L219.489 88.7056C219.671 88.8152 219.9 88.8052 220.073 88.6801C220.246 88.5548 220.327 88.3393 220.28 88.1314L219.636 85.2976L221.818 83.3846C221.978 83.2442 222.04 83.0225 221.974 82.8196Z" fill="#242834"/>
<path d="M235.974 82.8196C235.908 82.6171 235.729 82.4733 235.516 82.4542L232.63 82.1921L231.489 79.5207C231.405 79.325 231.213 79.1982 231 79.1982C230.787 79.1982 230.595 79.325 230.511 79.5212L229.37 82.1921L226.483 82.4542C226.271 82.4738 226.092 82.6171 226.026 82.8196C225.96 83.0221 226.021 83.2442 226.182 83.3842L228.363 85.2976L227.72 88.1314C227.673 88.3398 227.754 88.5552 227.927 88.6801C228.02 88.7473 228.128 88.7814 228.238 88.7814C228.332 88.7814 228.426 88.756 228.51 88.7056L231 87.2176L233.489 88.7056C233.671 88.8152 233.9 88.8052 234.073 88.6801C234.246 88.5548 234.327 88.3393 234.28 88.1314L233.636 85.2976L235.818 83.3846C235.978 83.2442 236.04 83.0225 235.974 82.8196Z" fill="#242834"/>
</svg>
