<svg width="246" height="168" viewBox="0 0 246 168" fill="none" xmlns="http://www.w3.org/2000/svg">
<rect x="5.5" y="118" width="227" height="50" rx="14" fill="#F8F8FA"/>
<path d="M32.182 137.168H34.34V143.044H39.982V145.072H34.34V151H32.182V145.072H26.54V143.044H32.182V137.168ZM42.0283 150.116L42.7563 147.698C43.4063 148.088 44.9923 148.738 46.6043 148.738C49.0483 148.738 50.0103 147.36 50.0103 146.034C50.0103 144.032 48.1123 143.174 46.1623 143.174H44.7063V140.834H46.1623C47.6183 140.834 49.4903 140.158 49.4903 138.494C49.4903 137.324 48.6583 136.362 46.7863 136.362C45.4083 136.362 44.0303 136.96 43.3283 137.428L42.6003 135.114C43.5623 134.464 45.4603 133.814 47.4623 133.814C50.9723 133.814 52.7403 135.738 52.7403 137.948C52.7403 139.716 51.7003 141.172 49.6203 141.9V141.952C51.6743 142.342 53.3123 143.876 53.3383 146.164C53.3383 149.024 50.9463 151.286 46.7603 151.286C44.7063 151.286 42.9383 150.714 42.0283 150.116ZM60.0237 151V136.986H59.9717L56.8777 138.546L56.3317 136.128L60.4657 134.1H63.1177V151H60.0237ZM78.1752 133.866V136.388C77.7072 136.362 77.1872 136.388 76.5632 136.466C73.0012 136.882 71.3112 139.04 70.8952 141.38H70.9732C71.8052 140.418 73.0792 139.742 74.7692 139.742C77.6812 139.742 79.9432 141.822 79.9432 145.254C79.9432 148.478 77.5772 151.286 73.9892 151.286C69.8812 151.286 67.6192 148.166 67.6192 143.98C67.6192 140.73 68.7892 138.104 70.5572 136.44C72.0912 134.958 74.1452 134.126 76.5632 133.944C77.2652 133.84 77.7852 133.84 78.1752 133.866ZM73.9892 148.894C75.6272 148.894 76.6932 147.464 76.6932 145.436C76.6932 143.46 75.6272 142.082 73.7552 142.082C72.5592 142.082 71.4932 142.81 70.9992 143.824C70.8692 144.084 70.7912 144.396 70.7912 144.838C70.8432 147.074 71.8832 148.894 73.9892 148.894ZM86.7855 138.338H89.9835V143.59H90.4515L94.3515 138.338H98.1475L93.1035 143.902C94.8455 144.162 95.9115 145.514 96.7695 147.542C97.1595 148.504 97.6015 149.882 98.1995 151H94.8715C94.5335 150.454 94.1695 149.518 93.7015 148.296C92.9995 146.554 92.0375 145.722 90.3995 145.722H89.9835V151H86.7855V138.338Z" fill="#242834"/>
<path d="M109.76 142.288H116.978V151H115.394V143.53H111.344V151H109.76V142.288ZM123.242 142.108C125.744 142.108 127.436 143.926 127.436 146.572C127.436 149.794 125.186 151.198 123.098 151.198C120.758 151.198 118.922 149.47 118.922 146.716C118.922 143.818 120.848 142.108 123.242 142.108ZM123.206 143.296C121.352 143.296 120.542 145.024 120.542 146.662C120.542 148.57 121.622 150.01 123.17 150.01C124.682 150.01 125.816 148.588 125.816 146.626C125.816 145.15 125.078 143.296 123.206 143.296ZM130.244 142.288H136.058V149.812L136.958 149.83L136.868 153.754H135.626L135.554 151H129.524L129.434 153.754H128.21L128.138 149.848L128.876 149.812C129.254 149.254 129.542 148.66 129.74 148.03C130.082 146.95 130.244 145.78 130.244 144.556V142.288ZM131.63 143.494V144.916C131.63 146.086 131.486 147.202 131.18 148.174C131 148.768 130.766 149.308 130.496 149.794H134.51V143.494H131.63ZM138.799 142.288H146.017V151H144.433V143.53H140.383V151H138.799V142.288ZM148.537 142.288H150.049V145.96C150.049 147.328 150.013 148.21 149.941 149.452L149.995 149.47C150.535 148.408 150.823 147.796 151.417 146.788L154.135 142.288H155.989V151H154.477V147.31C154.477 145.888 154.513 145.15 154.585 143.728H154.549C153.973 144.862 153.613 145.564 153.091 146.446C152.263 147.796 151.291 149.47 150.373 151H148.537V142.288ZM164.498 149.506L164.768 150.694C164.354 150.892 163.436 151.198 162.266 151.198C159.638 151.198 157.928 149.416 157.928 146.752C157.928 144.07 159.764 142.108 162.608 142.108C163.544 142.108 164.372 142.342 164.804 142.576L164.444 143.782C164.066 143.584 163.472 143.368 162.608 143.368C160.61 143.368 159.53 144.862 159.53 146.662C159.53 148.678 160.826 149.92 162.554 149.92C163.454 149.92 164.048 149.704 164.498 149.506ZM166.377 142.288H167.961V145.222C167.961 146.338 168.375 147.076 169.761 147.076C170.445 147.076 171.165 146.824 171.633 146.482V142.288H173.199V151.108H171.633V147.598H171.615C171.021 147.976 170.067 148.246 169.239 148.246C167.601 148.246 166.377 147.4 166.377 145.42V142.288ZM175.731 142.288H177.243V145.96C177.243 147.328 177.207 148.21 177.135 149.452L177.189 149.47C177.729 148.408 178.017 147.796 178.611 146.788L181.329 142.288H183.183V151H181.671V147.31C181.671 145.888 181.707 145.15 181.779 143.728H181.743C181.167 144.862 180.807 145.564 180.285 146.446C179.457 147.796 178.485 149.47 177.567 151H175.731V142.288ZM185.752 142.288H187.318V146.068H187.696L190.954 142.288H192.88L189.1 146.212C190.504 146.374 191.35 147.31 192.034 148.876C192.268 149.452 192.556 150.298 192.952 151H191.296C191.062 150.622 190.774 149.938 190.486 149.218C189.892 147.814 189.082 147.166 187.624 147.166H187.318V151H185.752V142.288ZM197.949 142.108C200.451 142.108 202.143 143.926 202.143 146.572C202.143 149.794 199.893 151.198 197.805 151.198C195.465 151.198 193.629 149.47 193.629 146.716C193.629 143.818 195.555 142.108 197.949 142.108ZM197.913 143.296C196.059 143.296 195.249 145.024 195.249 146.662C195.249 148.57 196.329 150.01 197.877 150.01C199.389 150.01 200.523 148.588 200.523 146.626C200.523 145.15 199.785 143.296 197.913 143.296ZM204.084 151V142.396C204.714 142.288 205.848 142.198 206.856 142.198C208.332 142.198 210.744 142.45 210.744 144.376C210.744 145.456 209.916 146.14 208.926 146.356V146.392C210.204 146.572 211.14 147.274 211.14 148.534C211.14 150.82 208.26 151.108 206.55 151.108C205.578 151.108 204.552 151.036 204.084 151ZM205.614 143.368V145.96H206.802C207.972 145.96 209.178 145.618 209.178 144.574C209.178 143.71 208.422 143.296 206.838 143.296C206.298 143.296 205.974 143.332 205.614 143.368ZM205.596 146.986V149.974C206.046 150.01 206.37 150.028 206.856 150.028C207.936 150.028 209.52 149.794 209.52 148.516C209.52 147.256 208.242 146.986 206.748 146.986H205.596Z" fill="#242834"/>
<path d="M181.338 126.364C181.663 126.433 182.003 126.427 182.323 126.273C186.16 124.557 190.187 122.62 193.527 119.493C194.702 118.385 196.34 116.632 196.932 114.095C197.645 111.049 196.506 107.871 194.103 106.159C191.687 104.445 188.385 104.448 185.683 106.171L185.561 106.249C185.483 106.128 185.404 106.007 185.323 105.898C183.309 103.095 179.92 101.905 176.921 102.938C173.808 104.012 171.732 107.147 171.839 110.576C171.943 113.587 173.229 116.131 174.478 118.237C176.191 121.107 178.364 123.657 180.264 125.77C180.496 126.028 180.898 126.284 181.348 126.379L181.338 126.364Z" fill="#242834"/>
<g opacity="0.5">
<path d="M209.919 102.422C210.244 102.491 210.585 102.485 210.905 102.331C214.741 100.614 218.768 98.6773 222.108 95.5503C223.283 94.4427 224.922 92.6898 225.513 90.153C226.226 87.107 225.087 83.9285 222.684 82.217C220.269 80.5028 216.966 80.5056 214.264 82.2282L214.143 82.3069C214.064 82.1858 213.985 82.0647 213.904 81.956C211.89 79.1525 208.501 77.9625 205.502 78.9955C202.389 80.0697 200.314 83.2045 200.42 86.6334C200.524 89.6442 201.81 92.1886 203.059 94.2943C204.772 97.1642 206.945 99.7142 208.845 101.828C209.077 102.086 209.48 102.341 209.929 102.437L209.919 102.422Z" fill="#6D3CF1"/>
</g>
<g opacity="0.5">
<path d="M218.522 74.2326C218.846 74.3016 219.187 74.2957 219.507 74.1418C223.343 72.4254 227.37 70.4884 230.71 67.3613C231.885 66.2537 233.524 64.5008 234.115 61.9641C234.828 58.918 233.689 55.7395 231.286 54.028C228.871 52.3139 225.568 52.3167 222.866 54.0393L222.745 54.1179C222.666 53.9968 222.588 53.8757 222.506 53.767C220.492 50.9636 217.104 49.7735 214.104 50.8065C210.991 51.8807 208.916 55.0155 209.022 58.4445C209.126 61.4553 210.412 63.9996 211.661 66.1053C213.374 68.9753 215.547 71.5252 217.447 73.6388C217.679 73.897 218.082 74.1522 218.531 74.2478L218.522 74.2326Z" fill="#6D3CF1"/>
</g>
<g opacity="0.4">
<path d="M197.42 38.424C197.745 38.493 198.085 38.4871 198.405 38.3332C202.242 36.6168 206.269 34.6798 209.609 31.5527C210.784 30.4452 212.422 28.6922 213.014 26.1555C213.727 23.1094 212.588 19.9309 210.185 18.2194C207.769 16.5053 204.467 16.5081 201.765 18.2307L201.643 18.3094C201.565 18.1882 201.486 18.0671 201.405 17.9584C199.39 15.155 196.002 13.9649 193.003 14.9979C189.89 16.0721 187.814 19.2069 187.921 22.6359C188.025 25.6467 189.311 28.191 190.56 30.2967C192.273 33.1667 194.446 35.7167 196.346 37.8302C196.578 38.0884 196.98 38.3436 197.43 38.4392L197.42 38.424Z" fill="#6D3CF1"/>
</g>
<path d="M0 48C0 39.1634 7.16344 32 16 32H49C57.8366 32 65 39.1634 65 48C65 56.8366 57.8366 64 49 64H16C7.16344 64 0 56.8366 0 48Z" fill="#F8F8FA"/>
<path d="M19.9709 52.8979C19.8409 52.8979 19.7109 52.8679 19.5909 52.7779C18.1109 51.6979 16.5809 50.5179 15.4509 48.8879C15.0509 48.3179 14.5209 47.4379 14.5009 46.3179C14.4709 44.9779 15.2309 43.7479 16.3909 43.2479C17.5509 42.7479 18.9409 43.0379 19.9109 43.9979L20.0009 44.0779C20.0609 44.0179 20.1109 43.9679 20.1709 43.9079C21.2709 42.9079 22.7809 42.7179 23.9509 43.4179C25.1609 44.1479 25.7509 45.6479 25.4009 47.0679C25.0909 48.3279 24.3109 49.2879 23.6009 50.0679C22.6209 51.1379 21.4609 52.0179 20.4609 52.7379C20.3509 52.8179 20.1709 52.8879 19.9809 52.8879L19.9709 52.8979Z" fill="#6D3CF1"/>
<path d="M32.2006 53.1587C30.2963 53.1587 29.0013 52.0225 28.8807 50.5054L28.8744 50.4229H30.4105L30.4169 50.4673C30.5502 51.2354 31.2484 51.8257 32.2133 51.8257C33.3051 51.8257 34.0604 51.0767 34.0604 50.0039V49.9912C34.0604 48.9438 33.2924 48.1948 32.2196 48.1948C31.6991 48.1948 31.2484 48.3535 30.8993 48.6455C30.7279 48.7852 30.5756 48.9629 30.4677 49.166H29.0394L29.4774 43.8403H35.1014V45.1797H30.785L30.5311 47.9409H30.5629C30.9628 47.3252 31.7181 46.9634 32.6386 46.9634C34.3842 46.9634 35.641 48.2266 35.641 49.9658V49.9785C35.641 51.8638 34.2255 53.1587 32.2006 53.1587ZM41.2427 53V51.2417H36.6724V49.8452L40.4746 43.8403H42.8042V49.896H44.0483V51.2417H42.8042V53H41.2427ZM38.145 49.9341H41.2681V45.0781H41.23L38.145 49.8896V49.9341ZM48.6217 43.6816C50.6403 43.6816 52.3224 45.0972 52.3224 48.3091V48.3218C52.3224 51.3496 50.9196 53.1587 48.5836 53.1587C46.8888 53.1587 45.6193 52.1812 45.3336 50.7974L45.3209 50.7275H46.9459L46.965 50.7847C47.2125 51.4131 47.7711 51.8193 48.59 51.8193C50.0626 51.8193 50.6783 50.4102 50.7418 48.6772C50.7482 48.582 50.7545 48.4868 50.7545 48.3853H50.7164C50.3546 49.2231 49.4405 49.8579 48.2028 49.8579C46.4381 49.8579 45.194 48.5884 45.194 46.8682V46.8555C45.194 45.0083 46.6476 43.6816 48.6217 43.6816ZM48.6217 48.5947C49.6691 48.5947 50.4689 47.8584 50.4689 46.8364V46.8301C50.4689 45.8145 49.6691 45.021 48.6407 45.021C47.6251 45.021 46.8063 45.8081 46.8063 46.7983V46.811C46.8063 47.8521 47.5807 48.5947 48.6217 48.5947Z" fill="#242834"/>
<path d="M26 32H40C40 32 38.6 31.5908 37.2 30.3632C36.4184 29.6779 35.2004 28.4823 34.277 27.5599C33.9374 27.2207 33.4749 27.032 33 27C32.5251 27.032 32.0626 27.2207 31.723 27.5599C30.7996 28.4823 29.5816 29.6779 28.8 30.3632C27.4 31.5908 26 32 26 32Z" fill="#F8F8FA"/>
<path d="M32.9513 21.0026C32.6913 21.0026 32.4313 20.9426 32.2113 20.7726C29.5513 18.8326 26.7813 16.6926 24.7313 13.7526C24.0113 12.7126 23.0413 11.1026 23.0013 9.06261C22.9513 6.61261 24.3413 4.36261 26.4613 3.44261C28.5913 2.52261 31.1213 3.06261 32.9113 4.82261L32.9913 4.90261C33.0713 4.82261 33.1513 4.74261 33.2313 4.67261C35.2313 2.85261 38.0213 2.49261 40.1513 3.77261C42.3613 5.10261 43.4413 7.84261 42.8013 10.4526C42.2313 12.7426 40.8313 14.4826 39.5313 15.8926C37.7513 17.8126 35.6713 19.4126 33.8713 20.7226C33.6513 20.8826 33.3013 21.0126 32.9413 21.0126L32.9513 21.0026ZM28.6213 5.00261C28.1513 5.00261 27.6913 5.09261 27.2613 5.28261C25.8813 5.88261 24.9713 7.38261 25.0013 9.02261C25.0213 10.1726 25.4513 11.2826 26.3713 12.6126C28.1413 15.1626 30.6013 17.1126 33.0013 18.8826C34.7213 17.6226 36.5113 16.2226 38.0713 14.5326C39.2513 13.2526 40.4113 11.8126 40.8713 9.97261C41.3113 8.21261 40.5913 6.37261 39.1313 5.49261C37.7413 4.65261 35.9513 4.91261 34.5813 6.16261C34.3913 6.33261 34.2113 6.53261 34.0413 6.72261L33.0513 7.76261L31.5113 6.26261C30.6813 5.45261 29.6313 5.01261 28.6113 5.01261L28.6213 5.00261Z" fill="#6D3CF1"/>
</svg>
