<svg width="122" height="20" viewBox="0 0 122 20" fill="none" xmlns="http://www.w3.org/2000/svg">
<g clip-path="url(#clip0_179_34)">
<path d="M5 10C7.76142 10 10 7.76142 10 5C10 7.76077 12.2375 9.99894 14.998 10C12.2375 10.0011 10 12.2392 10 15C10 12.2386 7.76142 10 5 10C2.23858 10 3.39263e-07 12.2386 2.18557e-07 15L0 20H5C7.76142 20 10 17.7614 10 15C10 17.7614 12.2386 20 15 20H20V15C20 12.2392 17.7625 10.0011 15.002 10C17.7625 9.99894 20 7.76077 20 5V1.03312e-06L15 1.25168e-06C12.2386 7.82292e-07 10 2.23858 10 5C10 2.23858 7.76142 2.05091e-06 5 1.68879e-06L1.74846e-06 0L1.09278e-06 5C7.30667e-07 7.76142 2.23858 10 5 10Z" fill="#F4F1F8"/>
</g>
<g clip-path="url(#clip1_179_34)">
<path d="M5 10C7.76142 10 10 7.76142 10 5C10 7.76077 12.2375 9.99894 14.998 10C12.2375 10.0011 10 12.2392 10 15C10 12.2386 7.76142 10 5 10C2.23858 10 3.39263e-07 12.2386 2.18557e-07 15L0 20H5C7.76142 20 10 17.7614 10 15C10 17.7614 12.2386 20 15 20H20V15C20 12.2392 17.7625 10.0011 15.002 10C17.7625 9.99894 20 7.76077 20 5V1.03312e-06L15 1.25168e-06C12.2386 7.82292e-07 10 2.23858 10 5C10 2.23858 7.76142 2.05091e-06 5 1.68879e-06L1.74846e-06 0L1.09278e-06 5C7.30667e-07 7.76142 2.23858 10 5 10Z" fill="#C9C1FD"/>
</g>
<g clip-path="url(#clip2_179_34)">
<path d="M5 10C7.76142 10 10 7.76142 10 5C10 7.76077 12.2375 9.99894 14.998 10C12.2375 10.0011 10 12.2392 10 15C10 12.2386 7.76142 10 5 10C2.23858 10 3.39263e-07 12.2386 2.18557e-07 15L0 20H5C7.76142 20 10 17.7614 10 15C10 17.7614 12.2386 20 15 20H20V15C20 12.2392 17.7625 10.0011 15.002 10C17.7625 9.99894 20 7.76077 20 5V1.03312e-06L15 1.25168e-06C12.2386 7.82292e-07 10 2.23858 10 5C10 2.23858 7.76142 2.05091e-06 5 1.68879e-06L1.74846e-06 0L1.09278e-06 5C7.30667e-07 7.76142 2.23858 10 5 10Z" fill="#6D3CF1"/>
</g>
<g clip-path="url(#clip3_179_34)">
<path d="M5 10C7.76142 10 10 7.76142 10 5C10 7.76077 12.2375 9.99894 14.998 10C12.2375 10.0011 10 12.2392 10 15C10 12.2386 7.76142 10 5 10C2.23858 10 3.39263e-07 12.2386 2.18557e-07 15L0 20H5C7.76142 20 10 17.7614 10 15C10 17.7614 12.2386 20 15 20H20V15C20 12.2392 17.7625 10.0011 15.002 10C17.7625 9.99894 20 7.76077 20 5V1.03312e-06L15 1.25168e-06C12.2386 7.82292e-07 10 2.23858 10 5C10 2.23858 7.76142 2.05091e-06 5 1.68879e-06L1.74846e-06 0L1.09278e-06 5C7.30667e-07 7.76142 2.23858 10 5 10Z" fill="#DED7FF"/>
</g>
<path d="M38.072 15.228L38.6 18.108C37.952 18.42 36.416 18.804 34.472 18.804C28.88 18.804 26 15.3 26 10.692C26 5.172 29.936 2.124 34.832 2.124C36.728 2.124 38.168 2.484 38.816 2.844L38.048 5.724C37.328 5.412 36.296 5.124 34.976 5.124C32.096 5.124 29.84 6.876 29.84 10.476C29.84 13.716 31.76 15.756 35 15.756C36.128 15.756 37.328 15.54 38.072 15.228Z" fill="#F8F8FA"/>
<path d="M41.0671 18.54V1.5H44.7151V8.22H44.7631C45.1471 7.692 45.6271 7.284 46.2031 6.996C46.7551 6.708 47.4271 6.54 48.0991 6.54C50.4271 6.54 52.2031 8.148 52.2031 11.7V18.54H48.5551V12.084C48.5551 10.548 48.0271 9.492 46.6591 9.492C45.6991 9.492 45.0991 10.116 44.8351 10.788C44.7391 11.004 44.7151 11.316 44.7151 11.58V18.54H41.0671Z" fill="#F8F8FA"/>
<path d="M65.1376 11.604V15.708C65.1376 16.812 65.1856 17.892 65.3296 18.54H62.0416L61.8256 17.364H61.7536C60.9856 18.3 59.7856 18.804 58.3936 18.804C56.0176 18.804 54.6016 17.076 54.6016 15.204C54.6016 12.156 57.3376 10.716 61.4896 10.716V10.572C61.4896 9.924 61.1536 9.036 59.3536 9.036C58.1536 9.036 56.8816 9.444 56.1136 9.924L55.4416 7.572C56.2576 7.116 57.8656 6.516 60.0016 6.516C63.9136 6.516 65.1376 8.82 65.1376 11.604ZM61.6096 14.268V12.996C59.6896 12.996 58.2016 13.452 58.2016 14.844C58.2016 15.78 58.8256 16.236 59.6416 16.236C60.5296 16.236 61.2976 15.636 61.5376 14.892C61.5856 14.7 61.6096 14.484 61.6096 14.268Z" fill="#F8F8FA"/>
<path d="M68.6058 4.62L72.1818 3.636V6.804H74.7978V9.492H72.1818V13.74C72.1818 15.156 72.5418 15.804 73.6218 15.804C74.1258 15.804 74.3658 15.78 74.7018 15.708L74.7258 18.468C74.2698 18.636 73.3818 18.78 72.3738 18.78C71.1978 18.78 70.2138 18.372 69.6138 17.772C68.9418 17.076 68.6058 15.948 68.6058 14.292V9.492H67.0458V6.804H68.6058V4.62Z" fill="#F8F8FA"/>
<path d="M91.6251 9.43693V17.9569C90.4971 18.3409 88.3611 18.8689 86.2251 18.8689C83.2731 18.8689 81.1371 18.1249 79.6491 16.7089C78.1851 15.2929 77.3691 13.1809 77.3691 10.8049C77.3931 5.42893 81.3051 2.35693 86.6091 2.35693C88.6971 2.35693 90.3051 2.76493 91.0971 3.12493L90.3291 6.07693C89.4411 5.66893 88.3611 5.38093 86.5851 5.38093C83.5371 5.38093 81.2091 7.08493 81.2091 10.6129C81.2091 13.9729 83.3211 15.9169 86.3211 15.9169C87.1371 15.9169 87.8091 15.8209 88.0971 15.7009V12.2929H85.6011V9.43693H91.6251Z" fill="#F8F8FA"/>
<path d="M94.7125 18.7009V2.74093C95.8405 2.54893 97.4245 2.40493 99.6565 2.40493C101.913 2.40493 103.521 2.83693 104.601 3.70093C105.657 4.51693 106.329 5.86093 106.329 7.44493C106.329 9.02893 105.825 10.3969 104.841 11.2849C103.593 12.4369 101.745 12.9889 99.5845 12.9889C99.1045 12.9889 98.6725 12.9649 98.3365 12.8929V18.7009H94.7125ZM98.3365 5.30893V10.0849C98.6485 10.1569 99.0085 10.1809 99.5605 10.1809C101.505 10.1809 102.705 9.19693 102.705 7.56493C102.705 6.07693 101.673 5.18893 99.8245 5.18893C99.1045 5.18893 98.6005 5.23693 98.3365 5.30893Z" fill="#F8F8FA"/>
<path d="M112.042 18.7009V5.59693H107.674V2.52493H120.106V5.59693H115.69V18.7009H112.042Z" fill="#F8F8FA"/>
<defs>
<clipPath id="clip0_179_34">
<rect width="10" height="10" fill="white"/>
</clipPath>
<clipPath id="clip1_179_34">
<rect width="10" height="10" fill="white" transform="translate(10)"/>
</clipPath>
<clipPath id="clip2_179_34">
<rect width="10" height="10" fill="white" transform="translate(0 10)"/>
</clipPath>
<clipPath id="clip3_179_34">
<rect width="10" height="10" fill="white" transform="translate(10 10)"/>
</clipPath>
</defs>
</svg>
