<svg width="1440" height="100" viewBox="0 0 1440 100" fill="none" xmlns="http://www.w3.org/2000/svg">
<g opacity="0.4">
<g clip-path="url(#clip0_137_587)">
<path d="M-51 100C-23.3858 100 -0.999998 77.6142 -0.999991 50C-0.99999 77.6077 21.3752 99.9894 48.9804 100C21.3752 100.011 -0.999996 122.392 -0.999995 150C-0.999996 122.386 -23.3858 100 -51 100C-78.6142 100 -101 122.386 -101 150L-101 200L-51 200C-23.3858 200 -0.999993 177.614 -0.999995 150C-0.999993 177.614 21.3858 200 49 200H99L99 150C99 122.392 76.6248 100.011 49.0196 100C76.6248 99.9894 99 77.6077 99 50L99 -8.74228e-06L49 -6.55671e-06C21.3858 -5.34965e-06 -0.999993 22.3857 -0.999991 50C-0.999993 22.3857 -23.3858 -1.86514e-05 -51 -1.74444e-05L-101 -3.05176e-05L-101 50C-101 77.6142 -78.6142 100 -51 100Z" fill="#C9C1FD"/>
</g>
<g clip-path="url(#clip1_137_587)">
<path d="M304.686 0.31543C249.773 55.5693 249.877 144.877 305 200C249.877 144.877 160.568 144.771 105.314 199.685C160.227 144.432 160.123 55.123 105 0C160.123 55.123 249.432 55.2295 304.686 0.31543Z" fill="#6D3CF1"/>
</g>
<g clip-path="url(#clip2_137_587)">
<path d="M361 100C388.614 100 411 77.6142 411 50C411 77.6077 433.375 99.9894 460.98 100C433.375 100.011 411 122.392 411 150C411 122.386 388.614 100 361 100C333.386 100 311 122.386 311 150L311 200L361 200C388.614 200 411 177.614 411 150C411 177.614 433.386 200 461 200H511L511 150C511 122.392 488.625 100.011 461.02 100C488.625 99.9894 511 77.6077 511 50L511 -8.74228e-06L461 -6.55671e-06C433.386 -5.34965e-06 411 22.3857 411 50C411 22.3857 388.614 -1.86514e-05 361 -1.74444e-05L311 -3.05176e-05L311 50C311 77.6142 333.386 100 361 100Z" fill="#C9C1FD"/>
</g>
<g clip-path="url(#clip3_137_587)">
<path d="M716.686 0.31543C661.773 55.5693 661.877 144.877 717 200C661.877 144.877 572.568 144.771 517.314 199.685C572.227 144.432 572.123 55.123 517 0C572.123 55.123 661.432 55.2295 716.686 0.31543Z" fill="#6D3CF1"/>
</g>
<g clip-path="url(#clip4_137_587)">
<path d="M773 100C800.614 100 823 77.6142 823 50C823 77.6077 845.375 99.9894 872.98 100C845.375 100.011 823 122.392 823 150C823 122.386 800.614 100 773 100C745.386 100 723 122.386 723 150L723 200L773 200C800.614 200 823 177.614 823 150C823 177.614 845.386 200 873 200H923L923 150C923 122.392 900.625 100.011 873.02 100C900.625 99.9894 923 77.6077 923 50L923 -8.74228e-06L873 -6.55671e-06C845.386 -5.34965e-06 823 22.3857 823 50C823 22.3857 800.614 -1.86514e-05 773 -1.74444e-05L723 -3.05176e-05L723 50C723 77.6142 745.386 100 773 100Z" fill="#C9C1FD"/>
</g>
<g clip-path="url(#clip5_137_587)">
<path d="M1128.69 0.31543C1073.77 55.5693 1073.88 144.877 1129 200C1073.88 144.877 984.568 144.771 929.314 199.685C984.227 144.432 984.123 55.123 929 0C984.123 55.123 1073.43 55.2295 1128.69 0.31543Z" fill="#6D3CF1"/>
</g>
<g clip-path="url(#clip6_137_587)">
<path d="M1185 100C1212.61 100 1235 77.6142 1235 50C1235 77.6077 1257.38 99.9894 1284.98 100C1257.38 100.011 1235 122.392 1235 150C1235 122.386 1212.61 100 1185 100C1157.39 100 1135 122.386 1135 150L1135 200L1185 200C1212.61 200 1235 177.614 1235 150C1235 177.614 1257.39 200 1285 200H1335L1335 150C1335 122.392 1312.62 100.011 1285.02 100C1312.62 99.9894 1335 77.6077 1335 50L1335 -8.74228e-06L1285 -6.55671e-06C1257.39 -5.34965e-06 1235 22.3857 1235 50C1235 22.3857 1212.61 -1.86514e-05 1185 -1.74444e-05L1135 -3.05176e-05L1135 50C1135 77.6142 1157.39 100 1185 100Z" fill="#C9C1FD"/>
</g>
<g clip-path="url(#clip7_137_587)">
<path d="M1540.69 0.31543C1485.77 55.5693 1485.88 144.877 1541 200C1485.88 144.877 1396.57 144.771 1341.31 199.685C1396.23 144.432 1396.12 55.123 1341 0C1396.12 55.123 1485.43 55.2295 1540.69 0.31543Z" fill="#6D3CF1"/>
</g>
</g>
<defs>
<clipPath id="clip0_137_587">
<rect width="200" height="200" fill="white" transform="translate(-101)"/>
</clipPath>
<clipPath id="clip1_137_587">
<rect width="200" height="200" fill="white" transform="translate(105)"/>
</clipPath>
<clipPath id="clip2_137_587">
<rect width="200" height="200" fill="white" transform="translate(311)"/>
</clipPath>
<clipPath id="clip3_137_587">
<rect width="200" height="200" fill="white" transform="translate(517)"/>
</clipPath>
<clipPath id="clip4_137_587">
<rect width="200" height="200" fill="white" transform="translate(723)"/>
</clipPath>
<clipPath id="clip5_137_587">
<rect width="200" height="200" fill="white" transform="translate(929)"/>
</clipPath>
<clipPath id="clip6_137_587">
<rect width="200" height="200" fill="white" transform="translate(1135)"/>
</clipPath>
<clipPath id="clip7_137_587">
<rect width="200" height="200" fill="white" transform="translate(1341)"/>
</clipPath>
</defs>
</svg>
