<svg width="184" height="246" viewBox="0 0 184 246" fill="none" xmlns="http://www.w3.org/2000/svg">
<g clip-path="url(#clip0_93_337)">
<path fill-rule="evenodd" clip-rule="evenodd" d="M2.61584 13.1042C0 18.2381 0 24.9587 0 38.4V84.6C0 98.0413 0 104.762 2.61584 109.896C4.9168 114.412 8.58834 118.083 13.1042 120.384C18.2381 123 24.9587 123 38.4 123C24.9587 123 18.2381 123 13.1042 125.616C8.58834 127.917 4.9168 131.588 2.61584 136.104C0 141.238 0 147.959 0 161.4V207.6C0 221.041 0 227.762 2.61584 232.896C4.9168 237.412 8.58834 241.083 13.1042 243.384C18.2381 246 24.9587 246 38.4 246H145.6C159.041 246 165.762 246 170.896 243.384C175.412 241.083 179.083 237.412 181.384 232.896C184 227.762 184 221.041 184 207.6V161.4C184 147.959 184 141.238 181.384 136.104C179.083 131.588 175.412 127.917 170.896 125.616C165.762 123 159.041 123 145.6 123C159.041 123 165.762 123 170.896 120.384C175.412 118.083 179.083 114.412 181.384 109.896C184 104.762 184 98.0413 184 84.6V38.4C184 24.9587 184 18.2381 181.384 13.1042C179.083 8.58834 175.412 4.9168 170.896 2.61584C165.762 0 159.041 0 145.6 0H38.4C24.9587 0 18.2381 0 13.1042 2.61584C8.58834 4.9168 4.9168 8.58834 2.61584 13.1042Z" fill="#C9C1FD"/>
<g clip-path="url(#clip1_93_337)">
<path d="M158.71 93.7107C139.957 112.464 114.521 123 87.9995 123V23.2251C87.8783 50.7358 65.5392 73 38 73C10.3858 73 -12 50.6142 -12 23C-12 -4.61424 10.3858 -27 38 -27C65.5392 -27 87.8783 -4.73577 87.9995 22.7749L87.9995 -77C114.521 -77 139.957 -66.4643 158.71 -47.7107C177.464 -28.957 188 -3.52164 188 23C188 49.5217 177.464 74.9571 158.71 93.7107Z" fill="#6D3CF1"/>
</g>
<g clip-path="url(#clip2_93_337)">
<path d="M17.2898 293.711C36.0435 312.464 61.4789 323 88.0005 323V223.225C88.1217 250.736 110.461 273 138 273C165.614 273 188 250.614 188 223C188 195.386 165.614 173 138 173C110.461 173 88.1217 195.264 88.0005 222.775L88.0005 123C61.4788 123 36.0434 133.536 17.2898 152.289C-1.46384 171.043 -11.9995 196.478 -11.9995 223C-11.9995 249.522 -1.46382 274.957 17.2898 293.711Z" fill="#DED7FF"/>
</g>
</g>
<defs>
<clipPath id="clip0_93_337">
<rect width="184" height="246" rx="24" fill="white"/>
</clipPath>
<clipPath id="clip1_93_337">
<rect width="200" height="200" fill="white" transform="translate(-12 -77)"/>
</clipPath>
<clipPath id="clip2_93_337">
<rect width="200" height="200" fill="white" transform="matrix(-1 0 0 1 188 123)"/>
</clipPath>
</defs>
</svg>
