<svg width="184" height="246" viewBox="0 0 184 246" fill="none" xmlns="http://www.w3.org/2000/svg">
<g clip-path="url(#clip0_93_430)">
<path fill-rule="evenodd" clip-rule="evenodd" d="M2.61584 13.1042C0 18.2381 0 24.9587 0 38.4V207.6C0 221.041 0 227.762 2.61584 232.896C4.9168 237.412 8.58834 241.083 13.1042 243.384C18.2381 246 24.9587 246 38.4 246H53.6C67.0413 246 73.7619 246 78.8958 243.384C83.4117 241.083 87.0832 237.412 89.3842 232.896C92 227.762 92 221.041 92 207.6C92 221.041 92 227.762 94.6158 232.896C96.9168 237.412 100.588 241.083 105.104 243.384C110.238 246 116.959 246 130.4 246H145.6C159.041 246 165.762 246 170.896 243.384C175.412 241.083 179.083 237.412 181.384 232.896C184 227.762 184 221.041 184 207.6V38.4C184 24.9587 184 18.2381 181.384 13.1042C179.083 8.58834 175.412 4.9168 170.896 2.61584C165.762 0 159.041 0 145.6 0H130.4C116.959 0 110.238 0 105.104 2.61584C100.588 4.9168 96.9168 8.58834 94.6158 13.1042C92 18.2381 92 24.9587 92 38.4C92 24.9587 92 18.2381 89.3842 13.1042C87.0832 8.58834 83.4117 4.9168 78.8958 2.61584C73.7619 0 67.0413 0 53.6 0H38.4C24.9587 0 18.2381 0 13.1042 2.61584C8.58834 4.9168 4.9168 8.58834 2.61584 13.1042Z" fill="#DED7FF"/>
<g clip-path="url(#clip1_93_430)">
<path d="M85.7765 -65.2266C85.7765 -86.2429 85.7765 -96.7511 78.9303 -100.692C72.084 -104.632 62.9557 -99.3781 44.6992 -88.87L31.5013 -81.2735C13.2447 -70.7654 4.1164 -65.5113 4.1164 -57.6302C4.1164 -49.749 13.2447 -44.4949 31.5013 -33.9868L44.6991 -26.3903C62.9557 -15.8821 72.084 -10.6281 78.9303 -14.5686C85.7765 -18.5092 85.7765 -29.0173 85.7765 -50.0337V-65.2266Z" fill="#C9C1FD"/>
<path d="M25.2773 -23.2399C7.02074 -33.748 -2.10756 -39.0021 -8.95378 -35.0616C-15.8 -31.121 -15.8 -20.6128 -15.8 0.403519V15.5965C-15.8 36.6128 -15.8 47.1209 -8.95378 51.0615C-2.10756 55.0021 7.02073 49.748 25.2773 39.2398L38.4752 31.6433C56.7318 21.1352 65.8601 15.8811 65.8601 7.99998C65.8601 0.118858 56.7318 -5.13522 38.4752 -15.6434L25.2773 -23.2399Z" fill="#C9C1FD"/>
<path d="M31.5013 49.9868C13.2447 60.4949 4.11636 65.749 4.11636 73.6301C4.11636 81.5112 13.2447 86.7653 31.5013 97.2735L44.6992 104.87C62.9558 115.378 72.084 120.632 78.9303 116.692C85.7765 112.751 85.7765 102.243 85.7765 81.2266V66.0336C85.7765 45.0173 85.7765 34.5091 78.9303 30.5686C72.084 26.628 62.9558 31.8821 44.6992 42.3903L31.5013 49.9868Z" fill="#C9C1FD"/>
<path d="M98.2242 81.2263C98.2242 102.243 98.2242 112.751 105.07 116.691C111.917 120.632 121.045 115.378 139.301 104.87L152.499 97.2734C170.756 86.7652 179.884 81.5111 179.884 73.63C179.884 65.7489 170.756 60.4948 152.499 49.9866L139.301 42.3904C121.045 31.8822 111.917 26.6282 105.07 30.5687C98.2242 34.5093 98.2242 45.0174 98.2242 66.0338V81.2263Z" fill="#C9C1FD"/>
<path d="M158.723 39.2396C176.979 49.7478 186.108 55.0018 192.954 51.0613C199.8 47.1207 199.8 36.6126 199.8 15.5962V0.40374C199.8 -20.6126 199.8 -31.1207 192.954 -35.0613C186.108 -39.0019 176.979 -33.7478 158.723 -23.2396L145.525 -15.6434C127.269 -5.13522 118.14 0.118858 118.14 7.99998C118.14 15.8811 127.269 21.1352 145.525 31.6434L158.723 39.2396Z" fill="#C9C1FD"/>
<path d="M152.499 -33.9867C170.756 -44.4948 179.884 -49.7489 179.884 -57.63C179.884 -65.5111 170.756 -70.7652 152.499 -81.2734L139.301 -88.8696C121.045 -99.3778 111.917 -104.632 105.07 -100.691C98.2242 -96.7507 98.2242 -86.2426 98.2242 -65.2262V-50.0338C98.2242 -29.0175 98.2242 -18.5093 105.07 -14.5687C111.917 -10.6282 121.045 -15.8823 139.301 -26.3904L152.499 -33.9867Z" fill="#C9C1FD"/>
</g>
<g clip-path="url(#clip2_93_430)">
<path d="M85.7765 164.773C85.7765 143.757 85.7765 133.249 78.9303 129.308C72.084 125.368 62.9557 130.622 44.6992 141.13L31.5013 148.726C13.2447 159.235 4.1164 164.489 4.1164 172.37C4.1164 180.251 13.2447 185.505 31.5013 196.013L44.6991 203.61C62.9557 214.118 72.084 219.372 78.9303 215.431C85.7765 211.491 85.7765 200.983 85.7765 179.966V164.773Z" fill="#6D3CF1"/>
<path d="M25.2773 206.76C7.02074 196.252 -2.10756 190.998 -8.95378 194.938C-15.8 198.879 -15.8 209.387 -15.8 230.404V245.596C-15.8 266.613 -15.8 277.121 -8.95378 281.062C-2.10756 285.002 7.02073 279.748 25.2773 269.24L38.4752 261.643C56.7318 251.135 65.8601 245.881 65.8601 238C65.8601 230.119 56.7318 224.865 38.4752 214.357L25.2773 206.76Z" fill="#6D3CF1"/>
<path d="M31.5013 279.987C13.2447 290.495 4.11636 295.749 4.11636 303.63C4.11636 311.511 13.2447 316.765 31.5013 327.273L44.6992 334.87C62.9558 345.378 72.084 350.632 78.9303 346.692C85.7765 342.751 85.7765 332.243 85.7765 311.227V296.034C85.7765 275.017 85.7765 264.509 78.9303 260.569C72.084 256.628 62.9558 261.882 44.6992 272.39L31.5013 279.987Z" fill="#6D3CF1"/>
<path d="M98.2242 311.226C98.2242 332.243 98.2242 342.751 105.07 346.691C111.917 350.632 121.045 345.378 139.301 334.87L152.499 327.273C170.756 316.765 179.884 311.511 179.884 303.63C179.884 295.749 170.756 290.495 152.499 279.987L139.301 272.39C121.045 261.882 111.917 256.628 105.07 260.569C98.2242 264.509 98.2242 275.017 98.2242 296.034V311.226Z" fill="#6D3CF1"/>
<path d="M158.723 269.24C176.979 279.748 186.108 285.002 192.954 281.061C199.8 277.121 199.8 266.613 199.8 245.596V230.404C199.8 209.387 199.8 198.879 192.954 194.939C186.108 190.998 176.979 196.252 158.723 206.76L145.525 214.357C127.269 224.865 118.14 230.119 118.14 238C118.14 245.881 127.269 251.135 145.525 261.643L158.723 269.24Z" fill="#6D3CF1"/>
<path d="M152.499 196.013C170.756 185.505 179.884 180.251 179.884 172.37C179.884 164.489 170.756 159.235 152.499 148.727L139.301 141.13C121.045 130.622 111.917 125.368 105.07 129.309C98.2242 133.249 98.2242 143.757 98.2242 164.774V179.966C98.2242 200.983 98.2242 211.491 105.07 215.431C111.917 219.372 121.045 214.118 139.301 203.61L152.499 196.013Z" fill="#6D3CF1"/>
</g>
</g>
<defs>
<clipPath id="clip0_93_430">
<rect width="184" height="246" rx="24" fill="white"/>
</clipPath>
<clipPath id="clip1_93_430">
<rect width="220" height="220" fill="white" transform="translate(-18 -102)"/>
</clipPath>
<clipPath id="clip2_93_430">
<rect width="220" height="220" fill="white" transform="translate(-18 128)"/>
</clipPath>
</defs>
</svg>
